<svg width="24" height="24" viewBox="0 0 24 24" fill="none" xmlns="http://www.w3.org/2000/svg">
<rect width="24" height="24" rx="12" fill="white"/>
<path d="M15.7998 15.3993C15.7998 15.6202 15.6207 15.7993 15.3998 15.7993H15.0006C14.7797 15.7993 14.6006 15.6202 14.6006 15.3993V11.2123C14.6006 10.8559 14.1697 10.6774 13.9177 10.9294L9.40687 15.4403C9.25066 15.5965 8.99739 15.5965 8.84118 15.4403L8.55921 15.1583C8.403 15.0021 8.403 14.7489 8.55921 14.5926L13.0701 10.0818C13.3221 9.82978 13.1436 9.39893 12.7872 9.39893H8.6002C8.37928 9.39893 8.2002 9.21984 8.2002 8.99893V8.59971C8.2002 8.37879 8.37928 8.19971 8.6002 8.19971H15.3998C15.6207 8.19971 15.7998 8.37879 15.7998 8.59971V15.3993Z" fill="#AC873E"/>
</svg>
