<svg width="24" height="24" viewBox="0 0 24 24" fill="none" xmlns="http://www.w3.org/2000/svg">
<rect width="24" height="24" rx="12" fill="url(#paint0_linear_168_79)"/>
<path d="M15.8535 16.6604C15.8535 16.7708 15.764 16.8604 15.6535 16.8604H14.6541C14.5436 16.8604 14.4541 16.7708 14.4541 16.6604V11.0795C14.4541 10.9013 14.2387 10.8121 14.1127 10.9381L8.40509 16.6457C8.32699 16.7238 8.20036 16.7238 8.12225 16.6457L7.41486 15.9383C7.33675 15.8602 7.33675 15.7336 7.41486 15.6555L13.1224 9.94787C13.2484 9.82187 13.1592 9.60645 12.981 9.60645H7.4002C7.28974 9.60645 7.2002 9.5169 7.2002 9.40645V8.40605C7.2002 8.2956 7.28974 8.20605 7.4002 8.20605H15.6535C15.764 8.20605 15.8535 8.2956 15.8535 8.40605V16.6604Z" fill="white"/>
<defs>
<linearGradient id="paint0_linear_168_79" x1="25.7376" y1="-15.3913" x2="25.7376" y2="53.4783" gradientUnits="userSpaceOnUse">
<stop stop-color="#CDA658"/>
<stop offset="1" stop-color="#AA7D26"/>
</linearGradient>
</defs>
</svg>
