<svg width="8" height="8" viewBox="0 0 8 8" fill="none" xmlns="http://www.w3.org/2000/svg">
<path d="M7.7998 7.39932C7.7998 7.62023 7.62072 7.79932 7.3998 7.79932H7.00059C6.77967 7.79932 6.60059 7.62023 6.60059 7.39932V3.21227C6.60059 2.85591 6.16973 2.67744 5.91774 2.92942L1.40687 7.4403C1.25066 7.59651 0.99739 7.59651 0.841181 7.4403L0.55921 7.15833C0.403 7.00212 0.403 6.74886 0.55921 6.59265L5.07009 2.08177C5.32207 1.82978 5.14361 1.39893 4.78724 1.39893H0.600196C0.379282 1.39893 0.200195 1.21984 0.200195 0.998926V0.599707C0.200195 0.378793 0.379281 0.199707 0.600195 0.199707H7.3998C7.62072 0.199707 7.7998 0.378793 7.7998 0.599707V7.39932Z" fill="#AC873E"/>
</svg>
