<svg width="44" height="44" viewBox="0 0 44 44" fill="none" xmlns="http://www.w3.org/2000/svg">
<g filter="url(#filter0_d_168_37)">
<rect x="2" width="40" height="40" rx="20" fill="white"/>
<g clip-path="url(#clip0_168_37)">
<path d="M34 20C34 13.3723 28.6277 8 22 8C15.3723 8 10 13.3723 10 20C10 26.6277 15.3723 32 22 32C28.6277 32 34 26.6277 34 20Z" fill="#F8604A"/>
<path d="M26.1999 27.2201H23.7796V14.7198H22.5602C20.4796 14.7198 19.4402 15.7601 19.4402 17.3201C19.4402 19.0601 20.1399 19.9195 21.6999 20.9598L22.9202 21.8201L19.4596 27.1998H16.6802L19.9802 22.3398C18.0796 20.9598 17.0402 19.7395 17.0402 17.4798C17.0402 14.6995 18.9399 12.7998 22.5999 12.7998H26.1999V27.2201Z" fill="white"/>
</g>
</g>
<defs>
<filter id="filter0_d_168_37" x="0" y="0" width="44" height="44" filterUnits="userSpaceOnUse" color-interpolation-filters="sRGB">
<feFlood flood-opacity="0" result="BackgroundImageFix"/>
<feColorMatrix in="SourceAlpha" type="matrix" values="0 0 0 0 0 0 0 0 0 0 0 0 0 0 0 0 0 0 127 0" result="hardAlpha"/>
<feOffset dy="2"/>
<feGaussianBlur stdDeviation="1"/>
<feColorMatrix type="matrix" values="0 0 0 0 0.227451 0 0 0 0 0.227451 0 0 0 0 0.227451 0 0 0 0.08 0"/>
<feBlend mode="normal" in2="BackgroundImageFix" result="effect1_dropShadow_168_37"/>
<feBlend mode="normal" in="SourceGraphic" in2="effect1_dropShadow_168_37" result="shape"/>
</filter>
<clipPath id="clip0_168_37">
<rect width="24" height="24" fill="white" transform="translate(10 8)"/>
</clipPath>
</defs>
</svg>
